<svg width="133" height="133" viewBox="0 0 133 133" fill="none" xmlns="http://www.w3.org/2000/svg">
<path d="M44.3333 66.5L44.3332 44.3333C44.3332 36.7127 44.3332 32.9023 45.777 29.9746C47.1401 27.2106 49.3772 24.9735 52.1412 23.6105C55.0689 22.1667 58.8792 22.1667 66.4999 22.1667V22.1667C74.1206 22.1667 77.9309 22.1667 80.8586 23.6105C83.6227 24.9735 85.8597 27.2106 87.2228 29.9746C88.6666 32.9023 88.6666 36.7127 88.6666 44.3333L88.6666 66.5" stroke="#33363F" stroke-width="2" stroke-linecap="round"/>
<path d="M21.861 53.5428C22.0061 51.8019 22.0786 50.9315 22.6527 50.4032C23.2268 49.875 24.1003 49.875 25.8472 49.875H107.153C108.9 49.875 109.773 49.875 110.347 50.4032C110.921 50.9315 110.994 51.8019 111.139 53.5428L116.194 114.209C116.279 115.222 116.321 115.729 116.024 116.052C115.727 116.375 115.218 116.375 114.201 116.375H18.7986C17.7815 116.375 17.273 116.375 16.9759 116.052C16.6788 115.729 16.721 115.222 16.8055 114.209L21.861 53.5428Z" stroke="#33363F" stroke-width="2"/>
</svg>
