<svg width="56" height="56" viewBox="0 0 56 56" fill="none" xmlns="http://www.w3.org/2000/svg">
<path d="M18.3667 28C18.3667 20.1023 24.769 13.7 32.6667 13.7C40.5644 13.7 46.9667 20.1023 46.9667 28C46.9667 35.8977 40.5644 42.3 32.6667 42.3C24.769 42.3 18.3667 35.8977 18.3667 28Z" fill="#FF5C00" stroke="#FF5C00" stroke-width="0.6"/>
<path d="M18.6667 44.1658C21.5044 45.8042 24.7233 46.6667 28 46.6667C31.2767 46.6667 34.4957 45.8042 37.3334 44.1658C40.171 42.5275 42.5275 40.1711 44.1658 37.3334C45.8042 34.4957 46.6667 31.2767 46.6667 28C46.6667 24.7234 45.8042 21.5044 44.1658 18.6667C42.5275 15.829 40.171 13.4726 37.3334 11.8342C34.4957 10.1959 31.2767 9.33337 28 9.33337C24.7233 9.33337 21.5044 10.1959 18.6667 11.8342" stroke="black" stroke-width="1.2"/>
<path d="M4.66669 28L4.19817 27.6252L3.89831 28L4.19817 28.3749L4.66669 28ZM25.6667 28.6C25.9981 28.6 26.2667 28.3314 26.2667 28C26.2667 27.6687 25.9981 27.4 25.6667 27.4V28.6ZM13.5315 15.9586L4.19817 27.6252L5.13521 28.3749L14.4685 16.7082L13.5315 15.9586ZM4.19817 28.3749L13.5315 40.0415L14.4685 39.2919L5.13521 27.6252L4.19817 28.3749ZM4.66669 28.6H25.6667V27.4H4.66669V28.6Z" fill="black"/>
</svg>
